<svg width="512" height="512" viewBox="0 0 512 512" fill="none" xmlns="http://www.w3.org/2000/svg">
  <rect width="512" height="512" rx="108" fill="#030405"/>
  <path d="M210.4 197.6L380.4 130.2C403.1 118.8 406.7 96.6 397.1 66.6C387.5 36.6 362.7 34.5 335.2 43.9L131.4 130.2C114.7 137.2 84.5 166.7 96.3 206.6C108.1 246.5 155.7 261.7 178.7 264" stroke="white" stroke-width="42" stroke-linecap="round"/>
  <path d="M287.6 314.4L118.4 382.3C95.6 393.7 84.3 412.9 93.9 442.9C103.5 472.9 128.4 475 155.8 465.6L359.6 379.3C376.3 372.3 420.7 348.5 420.7 302.9C420.7 261.3 380.9 212 312.4 245.5" stroke="white" stroke-width="42" stroke-linecap="round"/>
</svg>
